<svg width="205" height="32" viewBox="0 0 205 32" fill="none" xmlns="http://www.w3.org/2000/svg">
<path d="M204.744 29.8065C204.786 30.0796 204.597 30.3343 204.324 30.3753L199.874 31.0443C199.601 31.0854 199.347 30.8973 199.306 30.6242C199.265 30.3511 199.453 30.0965 199.726 30.0554L203.681 29.4607L203.087 25.5052C203.046 25.2321 203.234 24.9775 203.507 24.9364C203.78 24.8954 204.034 25.0835 204.075 25.3565L204.744 29.8065ZM0.25 29.8809L0 29.4478C57.3739 -3.677 108.505 -3.68375 145.297 4.6031C163.689 8.74555 178.494 14.9593 188.703 20.1387C193.808 22.7286 197.764 25.0603 200.447 26.7461C201.788 27.589 202.811 28.2705 203.499 28.742C203.844 28.9778 204.105 29.1611 204.28 29.2859C204.367 29.3483 204.434 29.3961 204.478 29.4285C204.501 29.4447 204.518 29.457 204.529 29.4654C204.535 29.4696 204.539 29.4728 204.542 29.475C204.544 29.4761 204.545 29.477 204.546 29.4776C204.547 29.4783 204.547 29.4787 204.25 29.8809C203.953 30.283 203.953 30.283 203.952 30.2826C203.952 30.2822 203.951 30.2816 203.95 30.2807C203.947 30.2789 203.943 30.2761 203.938 30.2723C203.928 30.2648 203.912 30.2533 203.891 30.2379C203.849 30.2073 203.785 30.1612 203.7 30.1005C203.529 29.9792 203.274 29.7994 202.934 29.5671C202.256 29.1026 201.244 28.4284 199.915 27.5928C197.255 25.9216 193.325 23.6052 188.25 21.0305C178.1 15.8808 163.374 9.69954 145.078 5.57866C108.495 -2.66114 57.6261 -2.66789 0.5 30.3139L0.25 29.8809Z" fill="#893EFB"/>
</svg>
